<svg width="166" height="62" viewBox="0 0 166 62" fill="none" xmlns="http://www.w3.org/2000/svg">
<path d="M16.8445 28.5287V32.6614H0V28.5287H16.8445ZM4.90944 20.9246H9.90353V51.1757C9.90353 52.5533 10.1081 53.5864 10.5172 54.2752C10.9404 54.9502 11.4765 55.4048 12.1255 55.639C12.7885 55.8594 13.4869 55.9696 14.2204 55.9696C14.7706 55.9696 15.2221 55.9421 15.5748 55.887C15.9275 55.8181 16.2096 55.763 16.4212 55.7217L17.437 60.1023C17.0984 60.2263 16.6258 60.3503 16.0192 60.4742C15.4125 60.612 14.6437 60.6809 13.7126 60.6809C12.3018 60.6809 10.9193 60.3847 9.56494 59.7923C8.22472 59.2 7.11022 58.2977 6.22144 57.0854C5.34677 55.8732 4.90944 54.3441 4.90944 52.4982V20.9246Z" fill="white"/>
<path d="M31.1115 61.0294C29.4583 61.0294 28.0713 60.7244 26.9505 60.1143C25.8578 59.5042 25.0452 58.6029 24.5128 57.4105C23.9805 56.218 23.7143 54.7205 23.7143 52.918V42.0195C23.7143 41.3817 23.8684 40.9102 24.1766 40.6052C24.5128 40.2724 24.9892 40.106 25.6056 40.106C26.222 40.106 26.6984 40.2724 27.0346 40.6052C27.3708 40.9102 27.539 41.3817 27.539 42.0195V52.918C27.539 54.6373 27.8892 55.913 28.5897 56.7449C29.2902 57.5491 30.397 57.9512 31.91 57.9512C33.5912 57.9512 34.9501 57.3966 35.9869 56.2874C37.0516 55.1781 37.584 53.7083 37.584 51.8781V42.0195C37.584 41.3817 37.7381 40.9102 38.0463 40.6052C38.3826 40.2724 38.8589 40.106 39.4753 40.106C40.0917 40.106 40.5681 40.2724 40.9043 40.6052C41.2406 40.9102 41.4087 41.3817 41.4087 42.0195V58.9912C41.4087 60.2946 40.7922 60.9462 39.5594 60.9462C38.9429 60.9462 38.4666 60.7799 38.1304 60.4471C37.8222 60.1143 37.6681 59.629 37.6681 58.9912V55.3722L38.2144 56.0794C37.654 57.6878 36.7434 58.9218 35.4825 59.7815C34.2497 60.6135 32.7926 61.0294 31.1115 61.0294Z" fill="white"/>
<path d="M56.053 61.0294C54.3998 61.0294 53.0128 60.7383 51.8921 60.1559C50.7993 59.5735 49.9727 58.7277 49.4123 57.6185C48.8799 56.5092 48.6138 55.1504 48.6138 53.5419V43.309H45.9239C45.4195 43.309 45.0273 43.1842 44.7471 42.9346C44.4669 42.6573 44.3268 42.2968 44.3268 41.8531C44.3268 41.3817 44.4669 41.0212 44.7471 40.7716C45.0273 40.522 45.4195 40.3972 45.9239 40.3972H48.6138V35.8631C48.6138 35.2253 48.7819 34.7539 49.1181 34.4488C49.4544 34.116 49.9307 33.9496 50.5471 33.9496C51.1635 33.9496 51.6259 34.116 51.9341 34.4488C52.2703 34.7539 52.4384 35.2253 52.4384 35.8631V40.3972H57.524C58.0564 40.3972 58.4627 40.522 58.7429 40.7716C59.0231 41.0212 59.1632 41.3817 59.1632 41.8531C59.1632 42.2968 59.0231 42.6573 58.7429 42.9346C58.4627 43.1842 58.0564 43.309 57.524 43.309H52.4384V53.2092C52.4384 54.7344 52.7607 55.8853 53.4051 56.6617C54.0496 57.4382 55.1143 57.8265 56.5994 57.8265C57.1317 57.8265 57.58 57.7849 57.9443 57.7017C58.3086 57.5907 58.6308 57.5353 58.911 57.5353C59.1632 57.5075 59.3733 57.5907 59.5414 57.7849C59.7376 57.979 59.8356 58.3395 59.8356 58.8664C59.8356 59.2546 59.7656 59.6151 59.6255 59.9479C59.5134 60.253 59.2752 60.4609 58.911 60.5719C58.5747 60.6828 58.1264 60.7799 57.566 60.8631C57.0056 60.974 56.5013 61.0294 56.053 61.0294Z" fill="white"/>
<path d="M71.1212 61.0294C69.1038 61.0294 67.3525 60.5996 65.8675 59.7399C64.3825 58.8803 63.2337 57.6601 62.4211 56.0794C61.6085 54.4987 61.2022 52.6407 61.2022 50.5053C61.2022 48.8969 61.4264 47.4549 61.8747 46.1792C62.351 44.8759 63.0235 43.7666 63.8921 42.8515C64.7607 41.9363 65.7975 41.243 67.0023 40.7716C68.2352 40.2724 69.6081 40.0228 71.1212 40.0228C73.1386 40.0228 74.8898 40.4527 76.3749 41.3124C77.8599 42.172 79.0087 43.3922 79.8213 44.9729C80.6338 46.5259 81.0401 48.37 81.0401 50.5053C81.0401 52.1138 80.802 53.5697 80.3256 54.8731C79.8773 56.1764 79.2189 57.2857 78.3502 58.2008C77.4816 59.116 76.4309 59.8231 75.198 60.3223C73.9932 60.7937 72.6342 61.0294 71.1212 61.0294ZM71.1212 58.0344C72.354 58.0344 73.4188 57.7433 74.3154 57.1609C75.2401 56.5785 75.9406 55.7327 76.4169 54.6235C76.9212 53.5142 77.1734 52.1415 77.1734 50.5053C77.1734 48.065 76.627 46.207 75.5343 44.9313C74.4415 43.6557 72.9705 43.0178 71.1212 43.0178C69.9163 43.0178 68.8516 43.309 67.9269 43.8914C67.0303 44.446 66.3298 45.278 65.8255 46.3872C65.3211 47.4965 65.0689 48.8692 65.0689 50.5053C65.0689 52.9457 65.6153 54.8176 66.7081 56.121C67.8289 57.3966 69.2999 58.0344 71.1212 58.0344Z" fill="white"/>
<path d="M87.9149 60.9462C87.2704 60.9462 86.7801 60.7799 86.4439 60.4471C86.1076 60.1143 85.9395 59.629 85.9395 58.9912V42.0195C85.9395 41.3817 86.1076 40.9102 86.4439 40.6052C86.7801 40.2724 87.2424 40.106 87.8308 40.106C88.4193 40.106 88.8676 40.2724 89.1758 40.6052C89.512 40.9102 89.6801 41.3817 89.6801 42.0195V45.2225H89.2598C89.7082 43.5586 90.5487 42.2968 91.7816 41.4371C93.0145 40.5775 94.5696 40.0922 96.4469 39.9812C96.8952 39.9535 97.2594 40.0644 97.5396 40.314C97.8198 40.5359 97.9739 40.9241 98.002 41.4787C98.03 42.0056 97.9039 42.4355 97.6237 42.7683C97.3435 43.0733 96.9092 43.2536 96.3208 43.309L95.5643 43.3506C93.715 43.5447 92.286 44.141 91.2773 45.1393C90.2966 46.1376 89.8062 47.5103 89.8062 49.2574V58.9912C89.8062 59.629 89.6381 60.1143 89.3019 60.4471C88.9937 60.7799 88.5313 60.9462 87.9149 60.9462Z" fill="white"/>
<path d="M103.265 60.9462C102.677 60.9462 102.215 60.7799 101.879 60.4471C101.542 60.1143 101.374 59.629 101.374 58.9912V42.0195C101.374 41.3817 101.542 40.9102 101.879 40.6052C102.215 40.2724 102.677 40.106 103.265 40.106C103.854 40.106 104.302 40.2724 104.61 40.6052C104.947 40.9102 105.115 41.3817 105.115 42.0195V45.5553L104.652 44.8065C105.185 43.2813 106.039 42.1027 107.216 41.2708C108.421 40.4388 109.85 40.0228 111.503 40.0228C113.24 40.0228 114.641 40.4388 115.706 41.2708C116.771 42.075 117.485 43.309 117.85 44.9729H117.261C117.766 43.4477 118.662 42.2414 119.951 41.354C121.268 40.4665 122.795 40.0228 124.532 40.0228C126.073 40.0228 127.334 40.3279 128.315 40.938C129.324 41.5203 130.08 42.4078 130.585 43.6002C131.089 44.7649 131.341 46.2624 131.341 48.0927V58.9912C131.341 59.629 131.173 60.1143 130.837 60.4471C130.501 60.7799 130.038 60.9462 129.45 60.9462C128.833 60.9462 128.357 60.7799 128.021 60.4471C127.685 60.1143 127.516 59.629 127.516 58.9912V48.2591C127.516 46.4843 127.208 45.1809 126.592 44.349C125.975 43.517 124.939 43.101 123.482 43.101C121.885 43.101 120.61 43.6557 119.657 44.7649C118.732 45.8465 118.27 47.344 118.27 49.2574V58.9912C118.27 59.629 118.102 60.1143 117.766 60.4471C117.457 60.7799 116.995 60.9462 116.379 60.9462C115.762 60.9462 115.286 60.7799 114.95 60.4471C114.613 60.1143 114.445 59.629 114.445 58.9912V48.2591C114.445 46.4843 114.137 45.1809 113.521 44.349C112.904 43.517 111.868 43.101 110.41 43.101C108.813 43.101 107.538 43.6557 106.586 44.7649C105.661 45.8465 105.199 47.344 105.199 49.2574V58.9912C105.199 60.2946 104.554 60.9462 103.265 60.9462Z" fill="white"/>
<path d="M139.383 60.8631C138.794 60.8631 138.332 60.6828 137.996 60.3223C137.659 59.9618 137.491 59.4626 137.491 58.8248V42.2275C137.491 41.5619 137.659 41.0628 137.996 40.73C138.332 40.3695 138.794 40.1892 139.383 40.1892C139.999 40.1892 140.475 40.3695 140.812 40.73C141.148 41.0628 141.316 41.5619 141.316 42.2275V58.8248C141.316 59.4626 141.148 59.9618 140.812 60.3223C140.503 60.6828 140.027 60.8631 139.383 60.8631ZM139.383 35.6967C138.626 35.6967 138.024 35.5026 137.575 35.1144C137.155 34.6984 136.945 34.1576 136.945 33.4921C136.945 32.7711 137.155 32.2303 137.575 31.8698C138.024 31.4815 138.626 31.2874 139.383 31.2874C140.195 31.2874 140.798 31.4815 141.19 31.8698C141.61 32.2303 141.82 32.7711 141.82 33.4921C141.82 34.1576 141.61 34.6984 141.19 35.1144C140.798 35.5026 140.195 35.6967 139.383 35.6967Z" fill="white"/>
<path d="M155.283 61.0294C153.489 61.0294 151.906 60.6135 150.533 59.7815C149.188 58.9218 148.137 57.7017 147.381 56.121C146.624 54.5125 146.246 52.6407 146.246 50.5053C146.246 48.3423 146.61 46.4843 147.339 44.9313C148.095 43.3506 149.146 42.1443 150.491 41.3124C151.864 40.4527 153.461 40.0228 155.283 40.0228C157.104 40.0228 158.673 40.4804 159.99 41.3955C161.307 42.283 162.189 43.4754 162.638 44.9729H162.175V32.9513C162.175 32.3135 162.329 31.8421 162.638 31.537C162.974 31.2042 163.45 31.0378 164.067 31.0378C164.683 31.0378 165.159 31.2042 165.496 31.537C165.832 31.8421 166 32.3135 166 32.9513V58.9912C166 59.629 165.832 60.1143 165.496 60.4471C165.159 60.7799 164.683 60.9462 164.067 60.9462C163.478 60.9462 163.016 60.7799 162.68 60.4471C162.343 60.1143 162.175 59.629 162.175 58.9912V55.2058L162.638 55.9546C162.217 57.5075 161.335 58.7416 159.99 59.6567C158.673 60.5719 157.104 61.0294 155.283 61.0294ZM156.165 58.0344C157.398 58.0344 158.463 57.7433 159.359 57.1609C160.284 56.5785 160.984 55.7327 161.461 54.6235C161.965 53.5142 162.217 52.1415 162.217 50.5053C162.217 48.065 161.671 46.207 160.578 44.9313C159.485 43.6557 158.014 43.0178 156.165 43.0178C154.96 43.0178 153.896 43.309 152.971 43.8914C152.074 44.446 151.374 45.278 150.869 46.3872C150.365 47.4965 150.113 48.8692 150.113 50.5053C150.113 52.9457 150.659 54.8176 151.752 56.121C152.873 57.3966 154.344 58.0344 156.165 58.0344Z" fill="white"/>
<path d="M22.4293 26.1934C23.0652 23.8236 22.7179 21.3116 21.4524 19.1197C20.1869 16.9278 18.1851 15.371 15.8148 14.7368L15.2112 16.9897C16.9797 17.4636 18.4791 18.6329 19.4332 20.2855C20.3863 21.9386 20.6503 23.8212 20.1764 25.5898L22.4293 26.1934Z" fill="#FF384B"/>
<path d="M27.0879 27.2291C29.0408 19.944 24.5334 12.1368 17.2478 10.1855L16.6441 12.4384C22.7098 14.0637 26.4603 20.5597 24.835 26.6254L27.0879 27.2291Z" fill="#FF384B"/>
<path d="M13.3715 23.7851C14.0157 24.9008 15.4424 25.2831 16.5581 24.6389C17.6739 23.9948 18.0562 22.5681 17.412 21.4524C16.7678 20.3366 15.3411 19.9543 14.2254 20.5985C13.1096 21.2427 12.7274 22.6694 13.3715 23.7851Z" fill="#FF384B"/>
</svg>
