<svg width="10" height="12" viewBox="0 0 13 15" fill="none" xmlns="http://www.w3.org/2000/svg">
<path d="M6.45739 14.2841C5.22633 14.2841 4.14619 13.9911 3.21697 13.4052C2.29368 12.8192 1.57161 11.9995 1.05078 10.946C0.535867 9.89252 0.278409 8.66146 0.278409 7.25284C0.278409 5.83239 0.535867 4.59245 1.05078 3.53303C1.57161 2.4736 2.29368 1.65092 3.21697 1.06499C4.14619 0.479048 5.22633 0.18608 6.45739 0.18608C7.68845 0.18608 8.76563 0.479048 9.68892 1.06499C10.6181 1.65092 11.3402 2.4736 11.8551 3.53303C12.3759 4.59245 12.6364 5.83239 12.6364 7.25284C12.6364 8.66146 12.3759 9.89252 11.8551 10.946C11.3402 11.9995 10.6181 12.8192 9.68892 13.4052C8.76563 13.9911 7.68845 14.2841 6.45739 14.2841ZM6.45739 12.402C7.39252 12.402 8.16193 12.1623 8.76562 11.6829C9.36932 11.2035 9.81617 10.5732 10.1062 9.7919C10.3962 9.01065 10.5412 8.1643 10.5412 7.25284C10.5412 6.34138 10.3962 5.49207 10.1062 4.7049C9.81617 3.91773 9.36932 3.28149 8.76562 2.79616C8.16193 2.31084 7.39252 2.06818 6.45739 2.06818C5.52225 2.06818 4.75284 2.31084 4.14915 2.79616C3.54545 3.28149 3.0986 3.91773 2.80859 4.7049C2.51858 5.49207 2.37358 6.34138 2.37358 7.25284C2.37358 8.1643 2.51858 9.01065 2.80859 9.7919C3.0986 10.5732 3.54545 11.2035 4.14915 11.6829C4.75284 12.1623 5.52225 12.402 6.45739 12.402Z" fill="#7C8C9D"/>
</svg>