<svg width="21" height="21" viewBox="0 0 38 38" fill="none" xmlns="http://www.w3.org/2000/svg">
<path d="M5.84408 9.96225C8.0655 7.554 11.4269 6.33325 15.8333 6.33325H17.4167V10.7967L16.1437 11.0516C13.9745 11.4854 12.4656 12.3388 11.6581 13.5913C11.2367 14.266 10.9978 15.0385 10.9646 15.8333H15.8333C16.2533 15.8333 16.656 16.0001 16.9529 16.297C17.2498 16.5939 17.4167 16.9967 17.4167 17.4166V28.4999C17.4167 30.2463 15.9964 31.6666 14.25 31.6666H4.75C4.33007 31.6666 3.92734 31.4998 3.63041 31.2028C3.33348 30.9059 3.16666 30.5032 3.16666 30.0833V22.1666L3.17141 17.5448C3.15716 17.3691 2.85633 13.2049 5.84408 9.96225ZM31.6667 31.6666H22.1667C21.7467 31.6666 21.344 31.4998 21.0471 31.2028C20.7501 30.9059 20.5833 30.5032 20.5833 30.0833V22.1666L20.5881 17.5448C20.5738 17.3691 20.273 13.2049 23.2607 9.96225C25.4822 7.554 28.8436 6.33325 33.25 6.33325H34.8333V10.7967L33.5603 11.0516C31.3912 11.4854 29.8822 12.3388 29.0748 13.5913C28.6534 14.266 28.4144 15.0385 28.3812 15.8333H33.25C33.6699 15.8333 34.0727 16.0001 34.3696 16.297C34.6665 16.5939 34.8333 16.9967 34.8333 17.4166V28.4999C34.8333 30.2463 33.4131 31.6666 31.6667 31.6666Z" fill="#1DD289"/>
</svg>