<svg width="476" height="175" viewBox="0 0 476 175" fill="none" xmlns="http://www.w3.org/2000/svg">
<path d="M48.301 81.8046V93.6549H0V81.8046H48.301ZM14.0777 60H28.3981V146.744C28.3981 150.694 28.9846 153.657 30.1578 155.632C31.3714 157.568 32.9086 158.871 34.7694 159.543C36.6707 160.175 38.6731 160.491 40.7767 160.491C42.3544 160.491 43.6489 160.412 44.6602 160.254C45.6715 160.056 46.4806 159.898 47.0874 159.78L50 172.341C49.0291 172.696 47.6739 173.052 45.9345 173.408C44.195 173.803 41.9903 174 39.3204 174C35.2751 174 31.3107 173.151 27.4272 171.452C23.5841 169.754 20.3883 167.166 17.8398 163.69C15.3317 160.214 14.0777 155.83 14.0777 150.536V60Z" fill="#814EF3"/>
<path d="M89.2112 175C84.4708 175 80.4937 174.125 77.2799 172.376C74.1464 170.626 71.8164 168.042 70.2898 164.623C68.7633 161.203 68 156.909 68 151.741V120.49C68 118.661 68.4419 117.309 69.3257 116.434C70.2898 115.48 71.6557 115.003 73.4233 115.003C75.1909 115.003 76.5568 115.48 77.5209 116.434C78.4851 117.309 78.9671 118.661 78.9671 120.49V151.741C78.9671 156.671 79.9715 160.329 81.9801 162.714C83.9887 165.02 87.1624 166.173 91.501 166.173C96.3218 166.173 100.219 164.583 103.191 161.402C106.244 158.221 107.771 154.007 107.771 148.759V120.49C107.771 118.661 108.213 117.309 109.097 116.434C110.061 115.48 111.427 115.003 113.194 115.003C114.962 115.003 116.328 115.48 117.292 116.434C118.256 117.309 118.738 118.661 118.738 120.49V169.155C118.738 172.893 116.971 174.761 113.435 174.761C111.668 174.761 110.302 174.284 109.338 173.33C108.454 172.376 108.012 170.984 108.012 169.155V158.778L109.579 160.806C107.972 165.418 105.361 168.957 101.745 171.422C98.2099 173.807 94.0319 175 89.2112 175Z" fill="#814EF3"/>
<path d="M160.73 175C155.99 175 152.013 174.165 148.799 172.495C145.665 170.825 143.295 168.4 141.688 165.219C140.162 162.038 139.399 158.142 139.399 153.53V124.187H131.685C130.239 124.187 129.114 123.829 128.311 123.114C127.507 122.319 127.106 121.285 127.106 120.012C127.106 118.661 127.507 117.627 128.311 116.911C129.114 116.196 130.239 115.838 131.685 115.838H139.399V102.836C139.399 101.007 139.881 99.6556 140.845 98.7809C141.809 97.8266 143.175 97.3495 144.942 97.3495C146.71 97.3495 148.036 97.8266 148.919 98.7809C149.884 99.6556 150.366 101.007 150.366 102.836V115.838H164.948C166.475 115.838 167.64 116.196 168.443 116.911C169.247 117.627 169.649 118.661 169.649 120.012C169.649 121.285 169.247 122.319 168.443 123.114C167.64 123.829 166.475 124.187 164.948 124.187H150.366V152.576C150.366 156.949 151.29 160.249 153.138 162.476C154.986 164.702 158.039 165.816 162.297 165.816C163.824 165.816 165.109 165.696 166.154 165.458C167.198 165.14 168.122 164.981 168.925 164.981C169.649 164.901 170.251 165.14 170.733 165.696C171.296 166.253 171.577 167.287 171.577 168.797C171.577 169.911 171.376 170.945 170.974 171.899C170.653 172.773 169.97 173.37 168.925 173.688C167.961 174.006 166.676 174.284 165.069 174.523C163.462 174.841 162.016 175 160.73 175Z" fill="#814EF3"/>
<path d="M203.938 175C198.153 175 193.131 173.767 188.873 171.302C184.615 168.837 181.321 165.338 178.991 160.806C176.661 156.273 175.496 150.945 175.496 144.822C175.496 140.21 176.138 136.075 177.424 132.417C178.79 128.68 180.718 125.499 183.209 122.875C185.699 120.251 188.672 118.263 192.127 116.911C195.662 115.48 199.599 114.764 203.938 114.764C209.723 114.764 214.744 115.997 219.003 118.462C223.261 120.927 226.555 124.426 228.885 128.958C231.215 133.411 232.38 138.699 232.38 144.822C232.38 149.435 231.697 153.609 230.331 157.347C229.046 161.084 227.158 164.265 224.667 166.889C222.176 169.513 219.163 171.541 215.628 172.972C212.173 174.324 208.277 175 203.938 175ZM203.938 166.412C207.473 166.412 210.526 165.577 213.097 163.907C215.749 162.237 217.757 159.812 219.123 156.631C220.569 153.45 221.292 149.514 221.292 144.822C221.292 137.825 219.726 132.497 216.592 128.839C213.459 125.181 209.241 123.352 203.938 123.352C200.483 123.352 197.43 124.187 194.778 125.857C192.207 127.448 190.199 129.833 188.753 133.014C187.306 136.195 186.583 140.131 186.583 144.822C186.583 151.82 188.15 157.188 191.283 160.925C194.497 164.583 198.715 166.412 203.938 166.412Z" fill="#814EF3"/>
<path d="M252.093 174.761C250.245 174.761 248.839 174.284 247.875 173.33C246.911 172.376 246.429 170.984 246.429 169.155V120.49C246.429 118.661 246.911 117.309 247.875 116.434C248.839 115.48 250.165 115.003 251.852 115.003C253.54 115.003 254.825 115.48 255.709 116.434C256.673 117.309 257.155 118.661 257.155 120.49V129.674H255.95C257.235 124.903 259.646 121.285 263.181 118.82C266.716 116.355 271.175 114.963 276.559 114.645C277.844 114.565 278.889 114.883 279.692 115.599C280.495 116.235 280.937 117.349 281.018 118.939C281.098 120.45 280.736 121.682 279.933 122.637C279.13 123.511 277.884 124.028 276.197 124.187L274.028 124.307C268.725 124.863 264.627 126.573 261.735 129.435C258.923 132.298 257.517 136.234 257.517 141.244V169.155C257.517 170.984 257.035 172.376 256.07 173.33C255.187 174.284 253.861 174.761 252.093 174.761Z" fill="#814EF3"/>
<path d="M296.111 174.761C294.423 174.761 293.098 174.284 292.134 173.33C291.169 172.376 290.687 170.984 290.687 169.155V120.49C290.687 118.661 291.169 117.309 292.134 116.434C293.098 115.48 294.423 115.003 296.111 115.003C297.798 115.003 299.083 115.48 299.967 116.434C300.931 117.309 301.413 118.661 301.413 120.49V130.628L300.088 128.481C301.614 124.108 304.065 120.728 307.439 118.343C310.894 115.957 314.992 114.764 319.732 114.764C324.714 114.764 328.731 115.957 331.784 118.343C334.837 120.649 336.886 124.187 337.93 128.958H336.243C337.689 124.585 340.26 121.126 343.956 118.581C347.733 116.037 352.111 114.764 357.093 114.764C361.512 114.764 365.127 115.639 367.94 117.388C370.832 119.058 373.001 121.603 374.447 125.022C375.894 128.362 376.617 132.656 376.617 137.904V169.155C376.617 170.984 376.135 172.376 375.171 173.33C374.206 174.284 372.881 174.761 371.193 174.761C369.426 174.761 368.06 174.284 367.096 173.33C366.132 172.376 365.65 170.984 365.65 169.155V138.381C365.65 133.292 364.766 129.555 362.998 127.169C361.231 124.784 358.258 123.591 354.08 123.591C349.5 123.591 345.845 125.181 343.113 128.362C340.461 131.463 339.136 135.757 339.136 141.244V169.155C339.136 170.984 338.654 172.376 337.689 173.33C336.806 174.284 335.48 174.761 333.712 174.761C331.945 174.761 330.579 174.284 329.615 173.33C328.651 172.376 328.169 170.984 328.169 169.155V138.381C328.169 133.292 327.285 129.555 325.517 127.169C323.75 124.784 320.777 123.591 316.599 123.591C312.019 123.591 308.363 125.181 305.632 128.362C302.98 131.463 301.655 135.757 301.655 141.244V169.155C301.655 172.893 299.807 174.761 296.111 174.761Z" fill="#814EF3"/>
<path d="M399.675 174.523C397.988 174.523 396.662 174.006 395.698 172.972C394.734 171.939 394.252 170.507 394.252 168.678V121.086C394.252 119.178 394.734 117.746 395.698 116.792C396.662 115.758 397.988 115.241 399.675 115.241C401.443 115.241 402.809 115.758 403.773 116.792C404.737 117.746 405.219 119.178 405.219 121.086V168.678C405.219 170.507 404.737 171.939 403.773 172.972C402.889 174.006 401.523 174.523 399.675 174.523ZM399.675 102.359C397.506 102.359 395.779 101.803 394.493 100.689C393.288 99.4965 392.685 97.9459 392.685 96.0374C392.685 93.9699 393.288 92.4193 394.493 91.3856C395.779 90.2723 397.506 89.7157 399.675 89.7157C402.005 89.7157 403.733 90.2723 404.858 91.3856C406.063 92.4193 406.665 93.9699 406.665 96.0374C406.665 97.9459 406.063 99.4965 404.858 100.689C403.733 101.803 402.005 102.359 399.675 102.359Z" fill="#814EF3"/>
<path d="M445.268 175C440.126 175 435.586 173.807 431.649 171.422C427.793 168.957 424.78 165.458 422.61 160.925C420.441 156.313 419.356 150.945 419.356 144.822C419.356 138.62 420.401 133.292 422.49 128.839C424.659 124.307 427.672 120.847 431.529 118.462C435.466 115.997 440.045 114.764 445.268 114.764C450.49 114.764 454.99 116.076 458.766 118.7C462.542 121.245 465.073 124.664 466.359 128.958H465.033V94.4868C465.033 92.6579 465.475 91.3061 466.359 90.4313C467.323 89.4771 468.689 89 470.456 89C472.224 89 473.59 89.4771 474.554 90.4313C475.518 91.3061 476 92.6579 476 94.4868V169.155C476 170.984 475.518 172.376 474.554 173.33C473.59 174.284 472.224 174.761 470.456 174.761C468.769 174.761 467.443 174.284 466.479 173.33C465.515 172.376 465.033 170.984 465.033 169.155V158.301L466.359 160.448C465.153 164.901 462.622 168.44 458.766 171.064C454.99 173.688 450.49 175 445.268 175ZM447.799 166.412C451.334 166.412 454.387 165.577 456.958 163.907C459.61 162.237 461.618 159.812 462.984 156.631C464.43 153.45 465.153 149.514 465.153 144.822C465.153 137.825 463.587 132.497 460.453 128.839C457.32 125.181 453.102 123.352 447.799 123.352C444.344 123.352 441.291 124.187 438.639 125.857C436.068 127.448 434.06 129.833 432.613 133.014C431.167 136.195 430.444 140.131 430.444 144.822C430.444 151.82 432.011 157.188 435.144 160.925C438.358 164.583 442.576 166.412 447.799 166.412Z" fill="#814EF3"/>
<path d="M64.3154 75.1086C66.1387 68.3132 65.1429 61.1102 61.5141 54.8248C57.8853 48.5395 52.1451 44.0756 45.3485 42.2569L43.6175 48.7171C48.6888 50.076 52.9882 53.4291 55.7241 58.1677C58.457 62.908 59.2141 68.3063 57.8552 73.3776L64.3154 75.1086Z" fill="#FF384B"/>
<path d="M77.6737 78.0783C83.2736 57.1884 70.3486 34.8016 49.4575 29.2063L47.7265 35.6665C65.1196 40.327 75.874 58.9541 71.2135 76.3473L77.6737 78.0783Z" fill="#FF384B"/>
<path d="M38.3423 68.203C40.1895 71.4024 44.2804 72.4985 47.4798 70.6514C50.6791 68.8043 51.7753 64.7133 49.9282 61.5139C48.081 58.3146 43.99 57.2184 40.7907 59.0656C37.5913 60.9127 36.4952 65.0037 38.3423 68.203Z" fill="#FF384B"/>
</svg>
